<svg height="512pt" viewBox="0 0 512 512" width="512pt" xmlns="http://www.w3.org/2000/svg"><path d="m437.019531 74.980469c-48.351562-48.351563-112.640625-74.980469-181.019531-74.980469s-132.667969 26.628906-181.019531 74.980469c-48.351563 48.351562-74.980469 112.640625-74.980469 181.019531s26.628906 132.667969 74.980469 181.019531c48.351562 48.351563 112.640625 74.980469 181.019531 74.980469s132.667969-26.628906 181.019531-74.980469c48.351563-48.351562 74.980469-112.640625 74.980469-181.019531s-26.628906-132.667969-74.980469-181.019531zm0 0" fill="#00d0d9"/><path d="m437.019531 74.980469c-48.351562-48.351563-112.640625-74.980469-181.019531-74.980469v512c68.378906 0 132.667969-26.628906 181.019531-74.980469 48.351563-48.351562 74.980469-112.640625 74.980469-181.019531s-26.628906-132.667969-74.980469-181.019531zm0 0" fill="#008eab"/><path d="m511.554688 241h-130.003907c-.851562-32.652344-4.457031-64.363281-10.511719-94.316406h116.152344c.148438 0 .289063-.019532.433594-.023438-4.886719-10.332031-10.496094-20.339844-16.773438-29.976562h-106.847656c-11.171875-41.648438-27.289062-78.976563-47.371094-109.484375-13.789062-3.332031-27.921874-5.535157-42.289062-6.546875 18.507812 21.46875 34.617188 49.46875 47.425781 82.71875 4.132813 10.730468 7.851563 21.859375 11.15625 33.3125h-153.851562c3.300781-11.453125 7.019531-22.578125 11.15625-33.3125 12.808593-33.25 28.917969-61.25 47.425781-82.71875-14.371094 1.011718-28.5 3.214844-42.289062 6.546875-20.082032 30.511719-36.199219 67.835937-47.371094 109.484375h-106.847656c-6.277344 9.636718-11.886719 19.644531-16.773438 29.976562.144531.003906.285156.023438.433594.023438h116.152344c-6.054688 29.953125-9.660157 61.664062-10.511719 94.316406h-130.003907c-.285156 4.976562-.445312 9.976562-.445312 15s.160156 10.023438.445312 15h130.003907c.851562 32.652344 4.457031 64.363281 10.511719 94.316406h-116.152344c-.148438 0-.289063.019532-.433594.023438 4.886719 10.332031 10.496094 20.339844 16.773438 29.976562h106.851562c11.171875 41.648438 27.285156 78.976563 47.371094 109.484375 13.785156 3.332031 27.917968 5.535157 42.285156 6.546875-18.507812-21.46875-34.613281-49.46875-47.425781-82.71875-4.132813-10.730468-7.851563-21.859375-11.15625-33.3125h153.855469c-3.304688 11.453125-7.023438 22.578125-11.15625 33.3125-12.8125 33.25-28.917969 61.25-47.425782 82.71875 14.367188-1.007812 28.5-3.214844 42.285156-6.546875 20.085938-30.511719 36.203126-67.835937 47.371094-109.484375h106.851563c6.277343-9.636718 11.886719-19.644531 16.773437-29.976562-.144531-.003906-.285156-.023438-.433594-.023438h-116.15625c6.054688-29.953125 9.660157-61.664062 10.511719-94.316406h130.003907c.285156-4.976562.445312-9.976562.445312-15s-.160156-10.023438-.445312-15zm-171.105469 124.316406h-168.898438c-6.457031-30.007812-10.210937-61.765625-11.09375-94.316406h191.082031c-.878906 32.554688-4.632812 64.308594-11.089843 94.316406zm-179.992188-124.316406c.882813-32.554688 4.636719-64.308594 11.09375-94.316406h168.898438c6.457031 30.007812 10.210937 61.765625 11.09375 94.316406zm0 0" fill="#f2f0ff"/><path d="m511.554688 271c.285156-4.976562.445312-9.976562.445312-15s-.160156-10.023438-.445312-15h-130.003907c-.851562-32.652344-4.457031-64.363281-10.511719-94.316406h116.152344c.148438 0 .289063-.019532.433594-.023438-4.886719-10.332031-10.496094-20.339844-16.773438-29.976562h-106.847656c-11.171875-41.648438-27.289062-78.976563-47.371094-109.484375-13.789062-3.332031-27.921874-5.535157-42.289062-6.546875 18.507812 21.46875 34.617188 49.46875 47.425781 82.71875 4.132813 10.730468 7.851563 21.859375 11.15625 33.3125h-76.925781v30h84.449219c6.457031 30.011718 10.210937 61.765625 11.09375 94.316406h-95.542969v30h95.542969c-.882813 32.554688-4.636719 64.308594-11.09375 94.316406h-84.449219v30h76.925781c-3.300781 11.453125-7.019531 22.582032-11.15625 33.316406-12.808593 33.25-28.917969 61.246094-47.425781 82.71875 14.371094-1.011718 28.5-3.214843 42.289062-6.546874 20.082032-30.511719 36.199219-67.839844 47.371094-109.488282h106.847656c6.277344-9.636718 11.886719-19.640625 16.773438-29.976562-.144531-.003906-.285156-.023438-.429688-.023438h-116.15625c6.054688-29.949218 9.660157-61.660156 10.511719-94.3125h130.003907zm0 0" fill="#c3bce8"/></svg>